# xmcd
#
# Track frame offsets:
#	150
#	13575
#	28242
#	36681
#	50208
#	65380
#	86173
#	102323
#	114404
#	129019
#	142958
#	155593
#	172318
#	183473
#
# Disc length: 2666 seconds
#
# Revision: 1
# Processed by: cddbd v1.5.1PL2 Copyright (c) Steve Scherf et al.
# Submitted via: audiograbber 1.83.01
#
DISCID=ca0a680e
DTITLE=Tony Portlock - Come From The Heart
DYEAR=2005
DGENRE=Blues
TTITLE0=Come Back Baby
TTITLE1=Don't Think Twice
TTITLE2=Coco Blues
TTITLE3=Nobody Knows You When You Are Down And Out
TTITLE4=Summertime
TTITLE5=The Needed Time
TTITLE6=The South Wind
TTITLE7=Time For A Change For The Better
TTITLE8=Tacumsa Valley
TTITLE9=Come From The Heart
TTITLE10=Early Morning Blues
TTITLE11=Speed Of The Sound Of Loneliness
TTITLE12=Factory
TTITLE13=Only You
EXTD=
EXTT0=
EXTT1=
EXTT2=
EXTT3=
EXTT4=
EXTT5=
EXTT6=
EXTT7=
EXTT8=
EXTT9=
EXTT10=
EXTT11=
EXTT12=
EXTT13=
PLAYORDER=
